<?xml version="1.0" encoding="UTF-8"?>
<svg width="12px" height="24px" viewBox="0 0 12 24" version="1.1" xmlns="http://www.w3.org/2000/svg" xmlns:xlink="http://www.w3.org/1999/xlink">
    <title>359F1DCA-521F-4F1B-A706-5421D9E49268</title>
    <g id="Menu" stroke="none" stroke-width="1" fill="none" fill-rule="evenodd">
        <g id="NBAA-Consumer" transform="translate(-38.000000, -227.000000)" fill="#1A1919">
            <g id="iOS/section-header/large/subtitle-1-icon-left" transform="translate(16.000000, 205.000000)">
                <path d="M32.5,44.5 L23,44.5 L23,36.937 C23,34.183 24.935,31.874 27.502,31.568 L27.646,31.529 C27.67,31.532 27.697,31.534 27.731,31.535 L28.006,31.569 C30.568,31.879 32.5,34.187 32.5,36.937 L32.5,44.5 Z M25.25,25.901 L25.25,25.32 C25.25,23.715 26.021,23 27.75,23 C29.478,23 30.25,23.715 30.25,25.317 L30.247,25.901 C30.247,28.231 29.149,30.056 27.748,30.056 C26.348,30.056 25.25,28.231 25.25,25.901 Z M28.928,30.755 C30.304,30.07 31.247,28.221 31.247,25.903 L31.25,25.32 C31.25,23.805 30.643,22 27.75,22 C24.857,22 24.25,23.805 24.25,25.32 L24.25,25.901 C24.25,28.22 25.193,30.069 26.568,30.755 C23.918,31.469 22,33.976 22,36.937 L22,45.5 L33.5,45.5 L33.5,36.937 C33.5,33.976 31.579,31.468 28.928,30.755 L28.928,30.755 Z" id="bofa_icon_profile1_k100"></path>
            </g>
        </g>
    </g>
</svg>