<?xml version="1.0" encoding="UTF-8"?>
<svg width="36px" height="46px" viewBox="0 0 36 46" version="1.1" xmlns="http://www.w3.org/2000/svg" xmlns:xlink="http://www.w3.org/1999/xlink">
    <title>logo</title>
    <g id="PR-dashboard" stroke="none" stroke-width="1" fill="none" fill-rule="evenodd">
        <g id="iOS---PR-Dashboard-Platinum-Honors-None-Used" transform="translate(-169.000000, -111.000000)" fill="#60554D" stroke="#FAFAFA">
            <g id="asset-icon-platinum-tier" transform="translate(129.000000, 112.000000)">
                <g id="bofa_icon_prefrew2_2007rgb" transform="translate(41.000000, 0.000000)">
                    <path d="M2.17241379,2.2 L2.17241379,39.8178 L17.4748966,29.216 L32.5862069,39.8024 L32.5862069,2.2 L2.17241379,2.2 Z M34.7586207,44 L17.4683793,31.8846 L0,43.9846 L0,0 L34.7586207,0 L34.7586207,44 L34.7586207,44 Z" id="Fill-1" stroke-width="0.25"></path>
                    <path d="M17.4184138,19.3864 L20.7226552,21.8196 L19.4604828,17.8838 L22.7647241,15.4528 L18.6805862,15.4528 L17.4184138,11.5192 L16.154069,15.4528 L12.0721034,15.4528 L15.3763448,17.8838 L14.1141724,21.8196 L17.4184138,19.3864 Z M24.8545862,27.577 L17.4184138,22.1078 L9.98006897,27.577 L12.8215862,18.7264 L5.38541379,13.2528 L14.5768966,13.2528 L17.4184138,4.4 L20.2577586,13.2528 L29.4514138,13.2528 L22.013069,18.7264 L24.8545862,27.577 L24.8545862,27.577 Z" id="Fill-2" stroke-width="0.5"></path>
                </g>
            </g>
        </g>
    </g>
</svg>