<?xml version="1.0" encoding="UTF-8"?>
<svg width="375px" height="160px" viewBox="0 0 375 160" version="1.1" xmlns="http://www.w3.org/2000/svg" xmlns:xlink="http://www.w3.org/1999/xlink">
    <title>EDFC1236-BF88-4FD2-AFCE-5BEE4D2B12CC</title>
    <defs>
        <path d="M48.5221924,118.598433 C49.4652776,120.675656 50.8258217,122.988795 52.3460819,124.699598 C53.780146,126.313357 58.0975496,127.348204 60.0530149,128.285172 C69.6116061,131.562099 80.438719,123.534488 80.8679801,123.212073 L80.8811703,123.202123 C80.8811703,123.202123 76.6079103,120.68381 72.3778471,118.480254 L71.8707231,118.21752 C70.8579949,117.695797 69.8576998,117.198733 68.9295088,116.76549 C68.8400278,116.723743 68.7418444,116.676993 68.6360486,116.625364 L68.41463,116.515636 C65.8744807,115.237866 60.0015853,111.63842 62.4014323,107.037758 C63.5982508,105.806814 66.7747509,106.584275 69.938371,107.312613 L70.4651802,107.433195 C71.2541899,107.612327 72.0354761,107.781245 72.7779049,107.9078 C76.6550331,108.568696 80.0986462,109.266403 83.969859,109.957416 C89.8396349,111.005649 95.639271,110.822438 101.598623,111.060863 C107.939097,111.314346 113.545214,115.244591 117.969095,119.747891 C118.588557,120.378353 119.579994,121.369433 120.840428,122.618907 L121.68675,123.456729 C129.814766,131.493024 146.621909,147.841409 150.650041,151.200722 C134.690638,158.390111 125.481621,160.409328 123.022988,157.258373 L122.481813,156.566639 C118.594861,151.611273 114.568158,146.753891 113.222402,145.457613 C110.530046,142.86422 106.502497,141.28727 102.946491,142.486087 C101.375528,143.015641 75.7803976,151.066033 67.5402327,150.104805 C59.3009129,149.144413 52.5624168,136.546382 45.4013916,132.266448 L44.2090141,130.912027 C41.5670234,128.020813 40.580536,124.142838 39.6499711,120.294953 L39.4508374,119.471237 C39.2846343,118.785809 39.1165712,118.103656 38.9375395,117.430569 C38.0800327,114.205235 36.9061252,111.470583 36.6500405,109.445095 L36.6500405,108.057716 C36.7768832,107.314213 37.1511221,106.724747 37.8845967,106.309099 C44.0890158,105.544466 46.7120772,114.609628 48.5221924,118.598433 Z" id="path-1"></path>
    </defs>
    <g id="Domestic-Send-&amp;-Add" stroke="none" stroke-width="1" fill="none" fill-rule="evenodd">
        <g id="UC1.2B---Landing-Page-FTU---Default-Copy" transform="translate(0.000000, -86.000000)">
            <g id="pages/Landing-Page-FTU-" transform="translate(0.000000, -2.000000)">
                <g id="IMG-LANDING-map" transform="translate(0.000000, 88.000000)">
                    <rect id="Rectangle" fill="#DAF0F8" x="0" y="0" width="375" height="160"></rect>
                    <path d="M15,160 C22.9414876,51.4699305 172.477552,31.1436863 174.018893,31 L182,44.9010397 C181.639023,44.9348479 42.7215985,61.5908702 32.0356994,160 C32.0356994,160 15,160 15,160 Z" id="Fill-5" fill="#FFFFFF"></path>
                    <path d="M375,103.87663 C300.96297,106.346852 211.298406,71.721309 106.006308,0 C105.554378,0.00606993332 129.536183,0.00606993332 129.536183,0.00606993332 C221.770478,61.1583986 303.641426,91.8046261 375,92.091049 L375,103.87663 Z" id="Fill-6" fill="#FFFFFF"></path>
                    <path d="M200.930087,159.99067 C226.546536,35.8102826 374.930087,34 374.930087,34 L374.930087,45 C374.579741,45.0329421 241.615,49.4777474 214.639548,160.000329 C214.994349,160.000329 200.999972,160.000329 200.930087,159.99067 Z" id="Fill-8" fill="#FFFFFF"></path>
                    <path d="M57.7657741,127.922717 C57.5036218,125.623627 57.7064188,122.912163 58.1128373,120.63518 C58.8926992,116.264868 61.8637585,107.184142 56.4550126,104.274569 C53.3446334,104.004188 52.9728388,108.758815 51.0726468,114.178342 C49.4403778,118.83604 47.1279967,123.557507 47.7553486,128.46773 L47.9548482,130.281325 L68.6500405,146.263571 C68.6500405,146.263571 67.9015051,143.701753 61.9445476,135.328439 C60.9000603,133.427269 58.0139119,130.093418 57.7657741,127.922717 Z" id="Fill-23" fill="#8E695F"></path>
                    <path d="M38.7354874,128.055975 L16.5896593,114.662028 C14.5805546,113.44974 14.5578807,111.485374 16.5393824,110.296992 L72.7890561,77.0744389 C74.7705578,75.8863894 78.035928,75.9059799 80.0450327,77.1182686 L101.576365,90.5122155 C103.58547,91.7248362 103.608144,93.68887 101.626642,94.8772516 L45.9914639,128.100137 C44.0099622,129.288187 40.7445921,129.268264 38.7354874,128.055975" id="Fill-4" fill="#CCDCF3" transform="translate(59.083012, 102.587207) scale(-1, 1) rotate(-16.000000) translate(-59.083012, -102.587207) "></path>
                    <path d="M42.8969327,124.774876 L18.3944061,111.152903 C17.8036917,110.807029 17.7970508,110.246205 18.379796,109.90717 L74.7672846,78.1020493 C75.3496978,77.7630144 76.3099822,77.768551 76.9006965,78.1147509 L100.30381,92.1226566 C100.894525,92.4688565 100.900834,93.0296808 100.318421,93.3687157 L45.0306767,124.787578 C44.4479315,125.126613 43.4879791,125.121076 42.8969327,124.774876" id="Fill-7" fill="#012169" transform="translate(59.349045, 101.444813) scale(-1, 1) rotate(-16.000000) translate(-59.349045, -101.444813) "></path>
                    <path d="M76.0516935,90.7187676 L20.3412055,124.17805 C18.3570215,125.374553 15.0872312,125.354489 13.0750779,124.133574 L13.0750779,126.277783 C15.0869022,127.498697 18.3570215,127.51943 20.3412055,126.322593 L76.0516935,92.8633104 C77.0358882,92.2697405 77.5238724,91.4838875 77.520911,90.6936872 L77.5215691,88.5812472 C77.5093941,89.3607466 77.0223971,90.1332234 76.0516935,90.7187676" id="Fill-12" fill="#6696DA" transform="translate(45.298323, 107.894129) scale(-1, 1) rotate(-16.000000) translate(-45.298323, -107.894129) "></path>
                    <path d="M33.422691,75.6755002 C33.5477073,75.5982555 33.7475439,75.5982555 33.8716131,75.6755002 L38.1420556,78.3294823 C38.2664404,78.408751 38.2692817,78.5352435 38.1442654,78.6148495 L38.1420556,78.6158614 C38.0170393,78.6934435 37.8143614,78.6934435 37.6896608,78.6158614 L33.4211125,75.962554 C33.2945178,75.8832853 33.2948335,75.7567928 33.4198497,75.6775241 L33.422691,75.6755002" id="Fill-15" fill="#012169" transform="translate(35.781411, 77.145807) scale(-1, 1) rotate(-16.000000) translate(-35.781411, -77.145807) "></path>
                    <mask id="mask-2" fill="white">
                        <use xlink:href="#path-1"></use>
                    </mask>
                    <use id="Clip-26" fill="#8E695F" xlink:href="#path-1"></use>
                    <path d="M174,160 C164.602783,150.544362 153.889395,140.224685 151.80669,138.250115 C147.22692,133.910033 142.64715,129.569105 138.06738,125.228176 C138.06738,125.228176 133.714315,121.971211 130.501418,123.332722 C127.28852,124.692541 126.00635,135.246159 110.994836,146.867662 C110.417694,147.313602 110.091338,148.07686 110.012448,148.810503 C109.933558,149.545837 110.243305,150.260863 110.555543,150.928503 C111.6062,153.173381 113.474232,156.354954 115.868614,159.990155 C115.309546,159.984608 173.863862,159.984608 174,160 Z" id="Fill-28" fill="#013B99"></path>
                    <ellipse id="Oval" fill="#BFD6DF" cx="312.150041" cy="26.6208265" rx="8" ry="1.5"></ellipse>
                    <path d="M319.999184,6 C317.790465,6 316,7.78927187 316,9.99853151 C316,12.2090965 317.790465,14 319.999184,14 C322.210513,14 324,12.2090965 324,9.99853151 C324,7.78927187 322.210513,6 319.999184,6 M320.158408,26.1208265 C320.158408,26.1208265 311.650041,14.4198573 311.650041,10.4554064 C311.650041,5.85267993 315.456623,2.12082647 320.149876,2.12082647 C324.842146,2.12082647 328.650041,5.85267993 328.650041,10.4554064 C328.650041,15.8215543 320.158408,26.1208265 320.158408,26.1208265" id="Fill-14" fill="#E21D3F"></path>
                    <path d="M54.0893193,94.8456588 C130.47369,19.4846188 218.99393,-5.14831953 319.650041,20.9468438" id="Path-2" stroke="#E21D3F" stroke-dasharray="3,5"></path>
                </g>
            </g>
        </g>
    </g>
</svg>